<?xml version="1.0" encoding="UTF-8" standalone="no"?>
<!-- Created with Inkscape (http://www.inkscape.org/) -->

<svg
   xmlns:dc="http://purl.org/dc/elements/1.1/"
   xmlns:cc="http://creativecommons.org/ns#"
   xmlns:rdf="http://www.w3.org/1999/02/22-rdf-syntax-ns#"
   xmlns:svg="http://www.w3.org/2000/svg"
   xmlns="http://www.w3.org/2000/svg"
   xmlns:sodipodi="http://sodipodi.sourceforge.net/DTD/sodipodi-0.dtd"
   xmlns:inkscape="http://www.inkscape.org/namespaces/inkscape"
   width="380"
   height="80.95739"
   id="svg2"
   version="1.1"
   inkscape:version="0.47 r22583"
   sodipodi:docname="Novi dokument 1">
  <defs
     id="defs4">
    <clipPath
       id="clipPath2834"
       clipPathUnits="userSpaceOnUse">
      <path
         id="path2836"
         d="M 0,1417.32 0,0 l 2834.65,0 0,1417.32 -2834.65,0 z" />
    </clipPath>
  </defs>
  <sodipodi:namedview
     id="base"
     pagecolor="#ffffff"
     bordercolor="#666666"
     borderopacity="1.0"
     inkscape:pageopacity="0.0"
     inkscape:pageshadow="2"
     inkscape:zoom="2.431579"
     inkscape:cx="189.99999"
     inkscape:cy="40.478694"
     inkscape:document-units="px"
     inkscape:current-layer="layer1"
     showgrid="false"
     inkscape:window-width="1024"
     inkscape:window-height="749"
     inkscape:window-x="-4"
     inkscape:window-y="-4"
     inkscape:window-maximized="1" />
  <metadata
     id="metadata7">
    <rdf:RDF>
      <cc:Work
         rdf:about="">
        <dc:format>image/svg+xml</dc:format>
        <dc:type
           rdf:resource="http://purl.org/dc/dcmitype/StillImage" />
        <dc:title></dc:title>
        <cc:license
           rdf:resource="http://creativecommons.org/licenses/by-sa/3.0/" />
      </cc:Work>
      <cc:License
         rdf:about="http://creativecommons.org/licenses/by-sa/3.0/">
        <cc:permits
           rdf:resource="http://creativecommons.org/ns#Reproduction" />
        <cc:permits
           rdf:resource="http://creativecommons.org/ns#Distribution" />
        <cc:requires
           rdf:resource="http://creativecommons.org/ns#Notice" />
        <cc:requires
           rdf:resource="http://creativecommons.org/ns#Attribution" />
        <cc:permits
           rdf:resource="http://creativecommons.org/ns#DerivativeWorks" />
        <cc:requires
           rdf:resource="http://creativecommons.org/ns#ShareAlike" />
      </cc:License>
    </rdf:RDF>
  </metadata>
  <g
     inkscape:label="Layer 1"
     inkscape:groupmode="layer"
     id="layer1"
     transform="translate(-192.85714,-449.02635)">
    <g
       transform="matrix(1.6729291,0,0,-1.6729291,145.43546,594.26085)"
       inkscape:label="ink_ext_XXXXXX"
       id="g2826">
      <g
         transform="scale(0.1,0.1)"
         id="g2828">
        <g
           id="g2830">
          <g
             clip-path="url(#clipPath2834)"
             id="g2832">
            <path
               id="path2838"
               style="fill:#254aa5;fill-opacity:1;fill-rule:nonzero;stroke:none"
               d="m 2312.97,509.566 c 64.41,0 116.63,52.2 116.63,116.614 0,6.035 -0.46,11.957 -1.34,17.746 6.03,-0.934 12.21,-1.414 18.5,-1.414 40.78,0 76.83,20.293 98.58,51.336 6.24,-21.473 9.59,-44.176 9.59,-67.668 0,-133.625 -108.32,-241.961 -241.96,-241.961 -133.63,0 -241.96,108.336 -241.96,241.961 0,133.64 108.33,241.965 241.96,241.965 21.71,0 42.74,-2.856 62.76,-8.219 -29.88,-21.887 -49.28,-57.235 -49.28,-97.11 0,-7.168 0.63,-14.187 1.83,-21.011 -5.01,0.656 -10.12,0.996 -15.31,0.996 -64.41,0 -116.62,-52.215 -116.62,-116.621 0,-64.414 52.21,-116.614 116.62,-116.614" />
            <path
               id="path2840"
               style="fill:#ec008c;fill-opacity:1;fill-rule:nonzero;stroke:none"
               d="m 2356.11,762.816 c 0,50.067 40.58,90.649 90.65,90.649 50.06,0 90.64,-40.582 90.64,-90.649 0,-50.062 -40.58,-90.648 -90.64,-90.648 -50.07,0 -90.65,40.586 -90.65,90.648" />
            <path
               id="path2842"
               style="fill:#254aa5;fill-opacity:1;fill-rule:nonzero;stroke:none"
               d="m 915.945,868.145 c -133.632,0 -241.961,-108.325 -241.961,-241.965 0,-133.625 108.329,-241.961 241.961,-241.961 133.635,0 241.955,108.336 241.955,241.961 0,133.64 -108.32,241.965 -241.955,241.965 z m 0,-358.579 c -64.41,0 -116.625,52.2 -116.625,116.614 0,64.406 52.215,116.621 116.625,116.621 64.41,0 116.635,-52.215 116.635,-116.621 0,-64.414 -52.225,-116.614 -116.635,-116.614" />
            <path
               id="path2844"
               style="fill:#254aa5;fill-opacity:1;fill-rule:nonzero;stroke:none"
               d="m 1518.71,813.379 c 1.33,3.004 2.97,7.754 2.97,13.176 0,4.148 -0.08,26.359 -0.08,26.359 l -344.3,0 c -5.1,0 -9.6,-4.476 -9.6,-9.594 l 0.02,-102.543 160.96,0 -155.9,-309.339 c -0.52,-0.872 -1.3,-2.274 -2.09,-4.161 -1.28,-3.039 -2.54,-7.199 -2.54,-11.816 0,-4.383 -0.23,-26.801 -0.23,-26.801 l 353.57,0 0,103.59 c 0,5.102 -4.48,9.59 -9.58,9.59 l -155.05,0 c 0,0 161.01,309.644 161.85,311.539" />
            <path
               id="path2846"
               style="fill:#254aa5;fill-opacity:1;fill-rule:nonzero;stroke:none"
               d="m 2009.04,852.914 c -17.32,0 -24.01,-3.539 -29.59,-7.984 -0.12,-0.11 -0.26,-0.196 -0.37,-0.297 -0.03,-0.012 -177.82,-176.094 -177.82,-176.094 0,0 -177.79,176.082 -177.82,176.094 -0.11,0.101 -0.25,0.187 -0.37,0.297 -5.59,4.445 -12.27,7.984 -29.6,7.984 -11.13,0 -17.14,0 -17.14,0 l 0,-464.203 122.96,0 0,223.508 103.87,-108.289 101.12,104.008 0.34,-219.227 121.58,0 0,464.203 c 0,0 -6.02,0 -17.16,0" />
            <path
               id="path2848"
               style="fill:#254aa5;fill-opacity:1;fill-rule:nonzero;stroke:none"
               d="M 704.902,851.672 533.059,849.969 412.34,701.102 l 0,151.855 -119.289,0 c -5.09,0 -9.586,-4.488 -9.586,-9.578 l 0,-456.07 128.875,0 0,147.375 147.012,-145.856 172.07,0.031 -220.207,226.371 193.687,236.442" />
          </g>
        </g>
      </g>
    </g>
  </g>
</svg>
